<?xml version="1.0" standalone="no"?>
<!DOCTYPE svg PUBLIC "-//W3C//DTD SVG 20010904//EN"
 "http://www.w3.org/TR/2001/REC-SVG-20010904/DTD/svg10.dtd">
<svg version="1.0" xmlns="http://www.w3.org/2000/svg"
 width="640.000000pt" height="640.000000pt" viewBox="0 0 640.000000 640.000000"
 preserveAspectRatio="xMidYMid meet">
<metadata>
Created by potrace 1.14, written by Peter Selinger 2001-2017
</metadata>
<g transform="translate(0.000000,640.000000) scale(0.100000,-0.100000)"
fill="#000000" stroke="none">
<path d="M1543 6018 c-40 -6 -73 -13 -73 -18 0 -4 -11 -5 -25 -2 -14 2 -25 0
-25 -5 0 -5 -12 -10 -26 -11 -31 -2 -46 -11 -40 -21 3 -4 -1 -8 -9 -8 -8 0
-11 5 -8 11 4 6 -1 5 -10 -3 -9 -7 -17 -11 -17 -7 0 12 -149 -51 -162 -69 -4
-5 -8 -7 -8 -2 0 4 -12 1 -27 -8 -85 -47 -128 -75 -126 -83 1 -6 -6 -8 -16 -5
-11 3 -21 -2 -24 -11 -4 -9 -11 -16 -16 -16 -6 0 -24 -12 -40 -27 -17 -16 -44
-38 -61 -51 -16 -13 -27 -28 -24 -34 4 -7 2 -8 -4 -4 -7 4 -22 -2 -34 -13 -12
-12 -18 -21 -14 -21 5 0 -3 -9 -18 -21 -14 -11 -23 -25 -20 -31 4 -7 2 -8 -4
-4 -13 8 -84 -82 -75 -97 3 -5 1 -7 -4 -4 -14 9 -37 -19 -28 -33 3 -5 0 -10
-8 -10 -17 0 -30 -27 -21 -41 3 -5 0 -8 -6 -7 -15 4 -71 -92 -65 -110 3 -7 0
-10 -5 -7 -18 11 -118 -243 -133 -340 -3 -16 -8 -37 -11 -45 -20 -53 -29 -159
-15 -176 10 -12 9 -13 -3 -9 -13 5 -15 -4 -15 -47 1 -30 -2 -59 -6 -65 -4 -6
-4 -14 0 -16 5 -3 7 -29 5 -59 -1 -29 -2 -62 -2 -73 1 -11 1 -26 1 -32 -1 -7
-1 -21 -1 -30 0 -30 -1 -77 -4 -105 -1 -16 2 -28 7 -28 5 0 4 -6 -2 -14 -9
-10 -9 -16 -1 -21 8 -5 8 -10 0 -20 -8 -10 -7 -15 2 -19 11 -5 11 -7 0 -12
-10 -5 -9 -10 4 -25 14 -16 15 -19 3 -14 -17 6 -20 -19 -5 -43 4 -6 3 -12 -2
-12 -10 0 -9 -30 2 -48 4 -6 3 -12 -1 -12 -5 0 -9 -9 -9 -20 0 -14 5 -19 15
-15 12 5 12 3 0 -11 -15 -19 -20 -54 -6 -54 5 0 4 -6 -2 -14 -9 -11 -9 -15 1
-19 8 -4 9 -8 3 -14 -12 -9 -13 -53 -2 -70 4 -6 1 -14 -5 -16 -10 -4 -9 -6 1
-6 11 -1 11 -4 1 -16 -10 -12 -10 -15 0 -15 10 0 10 -3 0 -15 -7 -8 -8 -15 -3
-15 5 0 10 -7 10 -15 0 -8 -5 -15 -10 -15 -5 0 -4 -7 3 -15 7 -9 8 -15 2 -15
-11 0 -10 -25 1 -36 4 -4 2 -13 -4 -21 -9 -10 -8 -13 0 -13 7 0 10 -4 6 -9
-10 -17 -13 -71 -3 -71 5 0 6 -6 1 -12 -10 -17 -10 -78 0 -100 5 -12 3 -18 -5
-18 -10 0 -10 -2 1 -9 8 -5 9 -11 3 -15 -11 -7 -11 -24 1 -43 4 -6 3 -14 -1
-17 -10 -6 -10 -46 1 -63 4 -6 3 -14 -1 -17 -10 -6 -9 -36 1 -53 4 -6 1 -14
-5 -16 -10 -4 -10 -6 0 -6 8 -1 10 -6 5 -13 -11 -18 -10 -42 2 -50 6 -5 5 -8
-4 -8 -11 0 -11 -3 -1 -15 10 -12 10 -15 0 -15 -10 0 -10 -3 0 -15 10 -12 10
-15 0 -15 -10 0 -10 -3 0 -15 9 -11 9 -15 1 -15 -9 0 -9 -5 0 -21 6 -12 7 -19
2 -16 -4 3 -8 -10 -8 -28 0 -18 3 -31 7 -28 13 7 9 -12 -4 -25 -9 -9 -9 -12 1
-12 7 0 9 -5 4 -12 -10 -17 -11 -128 -1 -150 5 -10 3 -20 -3 -24 -8 -4 -7 -9
2 -15 12 -8 12 -10 0 -18 -9 -6 -10 -11 -2 -15 6 -4 8 -12 5 -18 -9 -14 -12
-88 -4 -88 4 0 7 -7 7 -15 0 -8 -3 -15 -7 -15 -9 0 -6 -32 5 -49 6 -10 4 -12
-6 -6 -12 8 -12 6 0 -8 11 -14 11 -17 0 -17 -12 0 -12 -2 0 -9 8 -5 9 -11 3
-15 -11 -7 -11 -24 1 -43 5 -8 3 -13 -4 -13 -8 0 -8 -4 1 -15 8 -9 8 -15 2
-15 -12 0 -10 -38 2 -58 4 -7 2 -12 -4 -12 -7 0 -8 -6 -1 -18 6 -11 6 -24 0
-35 -7 -12 -6 -17 1 -17 6 0 8 -5 3 -13 -11 -17 -11 -59 0 -81 7 -14 6 -16 -4
-11 -8 5 -10 4 -5 -4 4 -7 10 -76 12 -154 2 -78 7 -149 11 -157 3 -8 7 -26 8
-40 1 -14 2 -38 3 -53 1 -20 6 -26 14 -21 10 6 10 4 2 -7 -8 -10 -7 -31 5 -77
9 -35 19 -61 22 -57 4 3 4 -7 1 -22 -5 -26 -4 -27 13 -13 17 14 18 13 8 -4 -7
-13 -6 -30 4 -60 28 -83 56 -146 65 -146 5 0 7 -4 3 -9 -3 -5 1 -15 8 -23 7
-7 14 -17 15 -23 3 -20 65 -134 83 -154 11 -11 19 -25 19 -31 0 -5 3 -10 8
-10 4 0 15 -15 25 -33 10 -18 42 -59 71 -90 29 -32 51 -59 49 -61 -4 -3 68
-69 122 -111 21 -16 49 -40 63 -52 23 -21 36 -27 55 -24 4 0 7 -4 7 -10 0 -5
14 -15 30 -20 17 -6 30 -14 30 -18 0 -4 24 -18 53 -32 28 -13 54 -27 55 -31 2
-5 12 -8 23 -8 10 0 19 -5 19 -11 0 -5 4 -8 9 -4 5 3 12 1 15 -4 5 -7 55 -22
72 -20 4 0 10 -3 13 -8 8 -12 150 -45 162 -37 5 3 9 1 9 -4 0 -12 146 -31 240
-31 41 0 338 0 660 0 1800 -1 2085 1 2099 12 12 9 13 9 7 0 -10 -18 95 -18
113 -1 10 10 12 10 7 1 -5 -9 19 -12 101 -11 59 1 122 5 138 9 17 5 46 11 65
14 117 17 257 69 387 143 34 20 59 40 56 45 -3 6 -1 7 5 3 17 -10 189 117 257
190 52 56 79 90 77 97 -1 4 5 7 14 7 11 0 14 5 10 17 -4 10 -4 15 -1 11 4 -3
16 3 26 13 33 33 109 151 103 160 -3 5 -1 9 4 9 12 0 74 119 67 130 -3 4 2 10
10 14 8 3 15 14 15 25 0 11 5 23 10 26 6 4 8 10 5 15 -3 5 -1 11 5 15 5 3 10
15 10 26 0 10 5 19 12 19 6 0 9 3 5 6 -3 4 0 18 7 33 19 36 74 257 77 306 2
22 6 48 11 58 6 11 5 17 -2 17 -7 0 -8 6 -1 19 14 25 13 2788 0 2797 -5 3 -6
11 -2 17 10 16 5 102 -13 219 -3 21 -6 40 -6 43 0 2 -9 37 -20 77 -11 40 -22
83 -25 96 -3 12 -9 22 -12 22 -4 0 -7 10 -7 23 1 13 -4 21 -12 19 -8 -1 -11 2
-7 8 3 5 0 24 -8 42 -8 18 -24 57 -36 85 -12 29 -31 68 -44 87 -12 18 -30 48
-39 66 -10 17 -22 29 -28 25 -5 -3 -7 0 -4 8 3 8 -2 21 -10 30 -9 9 -16 19
-16 24 0 4 -16 25 -35 46 -19 21 -35 40 -35 43 0 13 -100 105 -108 100 -6 -3
-9 2 -8 12 0 10 -6 17 -16 16 -10 -1 -14 4 -11 12 3 8 1 14 -5 14 -6 0 -23 14
-39 30 -15 17 -34 30 -40 30 -7 0 -13 6 -13 13 0 8 -4 7 -10 -3 -6 -10 -10
-11 -10 -2 0 6 0 15 -1 20 -1 10 -42 31 -52 25 -4 -2 -6 1 -5 8 2 7 -5 15 -15
17 -11 2 -26 10 -35 18 -10 8 -20 14 -24 15 -4 0 -33 14 -64 29 -31 16 -61 27
-67 23 -6 -3 -7 -1 -3 5 5 8 0 12 -13 12 -10 0 -21 4 -23 9 -1 6 -14 11 -28
13 -14 2 -35 10 -48 17 -13 7 -31 10 -40 6 -9 -3 -13 -3 -9 2 5 4 -27 16 -70
27 -76 19 -122 20 -1723 22 -1016 1 -1673 -2 -1717 -8z m-1193 -2718 c0 -5 -5
-10 -11 -10 -5 0 -7 5 -4 10 3 6 8 10 11 10 2 0 4 -4 4 -10z m0 -880 c0 -5 -5
-10 -11 -10 -5 0 -7 5 -4 10 3 6 8 10 11 10 2 0 4 -4 4 -10z m15 -260 c3 -5 1
-10 -4 -10 -6 0 -11 5 -11 10 0 6 2 10 4 10 3 0 8 -4 11 -10z m3758 -1795 c-3
-9 -8 -14 -10 -11 -3 3 -2 9 2 15 9 16 15 13 8 -4z m127 11 c0 -2 -8 -10 -17
-17 -16 -13 -17 -12 -4 4 13 16 21 21 21 13z m-1255 -16 c-3 -5 -12 -10 -18
-10 -7 0 -6 4 3 10 19 12 23 12 15 0z m490 0 c3 -5 1 -10 -4 -10 -6 0 -11 5
-11 10 0 6 2 10 4 10 3 0 8 -4 11 -10z m105 6 c0 -2 -7 -7 -16 -10 -8 -3 -12
-2 -9 4 6 10 25 14 25 6z m571 -19 c-10 -9 -11 -8 -5 6 3 10 9 15 12 12 3 -3
0 -11 -7 -18z"/>
</g>
</svg>
